<mxfile host="app.diagrams.net" agent="Mozilla/5.0 (Windows NT 10.0; Win64; x64) AppleWebKit/537.36 (KHTML, like Gecko) Chrome/135.0.0.0 Safari/537.36" version="26.2.9">
  <diagram name="Page-1" id="qbsfPRS29oE9khsaVF01">
    <mxGraphModel dx="1215" dy="623" grid="1" gridSize="10" guides="1" tooltips="1" connect="1" arrows="1" fold="1" page="1" pageScale="1" pageWidth="850" pageHeight="1100" math="0" shadow="0">
      <root>
        <mxCell id="0" />
        <mxCell id="1" parent="0" />
        <mxCell id="WzLW6ksaUHKT-4u5WCY7-3" value="DCMS" style="rounded=0;whiteSpace=wrap;html=1;" vertex="1" parent="1">
          <mxGeometry x="550" y="140" width="70" height="150" as="geometry" />
        </mxCell>
        <mxCell id="WzLW6ksaUHKT-4u5WCY7-4" value="Different PSPs for each Checkout Models" style="rounded=0;whiteSpace=wrap;html=1;" vertex="1" parent="1">
          <mxGeometry x="650" y="140" width="120" height="150" as="geometry" />
        </mxCell>
        <mxCell id="WzLW6ksaUHKT-4u5WCY7-5" value="" style="endArrow=classic;html=1;rounded=0;" edge="1" parent="1">
          <mxGeometry width="50" height="50" relative="1" as="geometry">
            <mxPoint x="510" y="174.5" as="sourcePoint" />
            <mxPoint x="550" y="175" as="targetPoint" />
          </mxGeometry>
        </mxCell>
        <mxCell id="WzLW6ksaUHKT-4u5WCY7-6" value="" style="endArrow=classic;html=1;rounded=0;" edge="1" parent="1">
          <mxGeometry width="50" height="50" relative="1" as="geometry">
            <mxPoint x="520" y="254.5" as="sourcePoint" />
            <mxPoint x="550" y="254.5" as="targetPoint" />
          </mxGeometry>
        </mxCell>
        <mxCell id="WzLW6ksaUHKT-4u5WCY7-7" value="" style="endArrow=classic;html=1;rounded=0;" edge="1" parent="1">
          <mxGeometry width="50" height="50" relative="1" as="geometry">
            <mxPoint x="620" y="210" as="sourcePoint" />
            <mxPoint x="650" y="210" as="targetPoint" />
          </mxGeometry>
        </mxCell>
        <mxCell id="WzLW6ksaUHKT-4u5WCY7-8" value="Omni Client" style="rounded=0;whiteSpace=wrap;html=1;" vertex="1" parent="1">
          <mxGeometry x="40" y="140" width="80" height="70" as="geometry" />
        </mxCell>
        <mxCell id="WzLW6ksaUHKT-4u5WCY7-9" value="Juspay API" style="rounded=0;whiteSpace=wrap;html=1;" vertex="1" parent="1">
          <mxGeometry x="150" y="220" width="80" height="70" as="geometry" />
        </mxCell>
        <mxCell id="WzLW6ksaUHKT-4u5WCY7-10" value="" style="endArrow=classic;html=1;rounded=0;exitX=1;exitY=0.5;exitDx=0;exitDy=0;" edge="1" parent="1" source="WzLW6ksaUHKT-4u5WCY7-8">
          <mxGeometry width="50" height="50" relative="1" as="geometry">
            <mxPoint x="230" y="174.5" as="sourcePoint" />
            <mxPoint x="260" y="174.5" as="targetPoint" />
          </mxGeometry>
        </mxCell>
        <mxCell id="WzLW6ksaUHKT-4u5WCY7-11" value="" style="endArrow=classic;html=1;rounded=0;" edge="1" parent="1">
          <mxGeometry width="50" height="50" relative="1" as="geometry">
            <mxPoint x="230" y="254.5" as="sourcePoint" />
            <mxPoint x="260" y="254.5" as="targetPoint" />
          </mxGeometry>
        </mxCell>
        <mxCell id="WzLW6ksaUHKT-4u5WCY7-12" value="" style="endArrow=classic;html=1;rounded=0;" edge="1" parent="1">
          <mxGeometry width="50" height="50" relative="1" as="geometry">
            <mxPoint x="120" y="254.5" as="sourcePoint" />
            <mxPoint x="150" y="254.5" as="targetPoint" />
          </mxGeometry>
        </mxCell>
        <mxCell id="WzLW6ksaUHKT-4u5WCY7-13" value="DMS Client" style="rounded=0;whiteSpace=wrap;html=1;" vertex="1" parent="1">
          <mxGeometry x="40" y="220" width="80" height="70" as="geometry" />
        </mxCell>
        <mxCell id="WzLW6ksaUHKT-4u5WCY7-14" value="" style="rounded=0;whiteSpace=wrap;html=1;" vertex="1" parent="1">
          <mxGeometry x="260" y="120" width="260" height="170" as="geometry" />
        </mxCell>
        <mxCell id="WzLW6ksaUHKT-4u5WCY7-15" value="&lt;span style=&quot;background-color: transparent; color: light-dark(rgb(0, 0, 0), rgb(255, 255, 255));&quot;&gt;Checkout Models for Omni Collect&lt;/span&gt;&lt;div&gt;&lt;font style=&quot;font-size: 10px;&quot;&gt;&lt;i&gt;e.g. UK GP, UAE Geidea, AU Fiserv, etc&lt;/i&gt;&lt;/font&gt;&lt;/div&gt;" style="rounded=0;whiteSpace=wrap;html=1;" vertex="1" parent="1">
          <mxGeometry x="270" y="150" width="240" height="60" as="geometry" />
        </mxCell>
        <mxCell id="WzLW6ksaUHKT-4u5WCY7-16" value="&lt;span style=&quot;background-color: transparent; color: light-dark(rgb(0, 0, 0), rgb(255, 255, 255));&quot;&gt;Checkout Models for Juspay&lt;/span&gt;&lt;div&gt;&lt;i&gt;&lt;b&gt;&lt;font style=&quot;font-size: 10px;&quot;&gt;(Hidden from Omni Collect Client)&lt;/font&gt;&lt;/b&gt;&lt;/i&gt;&lt;/div&gt;&lt;div&gt;&lt;font style=&quot;font-size: 10px;&quot;&gt;&lt;i&gt;e.g. Yeahka for Alipay / Wechat Pay, HK Payme, etc&lt;/i&gt;&lt;/font&gt;&lt;/div&gt;" style="rounded=0;whiteSpace=wrap;html=1;" vertex="1" parent="1">
          <mxGeometry x="270" y="220" width="240" height="60" as="geometry" />
        </mxCell>
        <mxCell id="WzLW6ksaUHKT-4u5WCY7-17" value="Single API" style="text;html=1;align=center;verticalAlign=middle;whiteSpace=wrap;rounded=0;" vertex="1" parent="1">
          <mxGeometry x="320" y="120" width="130" height="30" as="geometry" />
        </mxCell>
      </root>
    </mxGraphModel>
  </diagram>
</mxfile>
